<svg width="162" height="23" viewBox="0 0 162 23" fill="none" xmlns="http://www.w3.org/2000/svg">
<path d="M0.704 0.863999H3.872L11.696 13.488H11.744V0.863999H14.6V18H11.432L3.632 5.4H3.56V18H0.704V0.863999ZM27.6723 15.24C27.6723 15.576 27.7123 15.816 27.7923 15.96C27.8883 16.104 28.0643 16.176 28.3203 16.176C28.4003 16.176 28.4963 16.176 28.6083 16.176C28.7203 16.176 28.8483 16.16 28.9923 16.128V18.024C28.8963 18.056 28.7683 18.088 28.6083 18.12C28.4643 18.168 28.3123 18.208 28.1523 18.24C27.9923 18.272 27.8323 18.296 27.6723 18.312C27.5123 18.328 27.3763 18.336 27.2643 18.336C26.7043 18.336 26.2403 18.224 25.8723 18C25.5043 17.776 25.2643 17.384 25.1523 16.824C24.6083 17.352 23.9363 17.736 23.1363 17.976C22.3523 18.216 21.5923 18.336 20.8563 18.336C20.2963 18.336 19.7603 18.256 19.2483 18.096C18.7363 17.952 18.2803 17.736 17.8803 17.448C17.4963 17.144 17.1843 16.768 16.9443 16.32C16.7203 15.856 16.6083 15.32 16.6083 14.712C16.6083 13.944 16.7443 13.32 17.0163 12.84C17.3043 12.36 17.6723 11.984 18.1203 11.712C18.5843 11.44 19.0963 11.248 19.6563 11.136C20.2323 11.008 20.8083 10.912 21.3843 10.848C21.8803 10.752 22.3523 10.688 22.8003 10.656C23.2483 10.608 23.6403 10.536 23.9763 10.44C24.3283 10.344 24.6003 10.2 24.7923 10.008C25.0003 9.8 25.1043 9.496 25.1043 9.096C25.1043 8.744 25.0163 8.456 24.8403 8.232C24.6803 8.008 24.4723 7.84 24.2163 7.728C23.9763 7.6 23.7043 7.52 23.4003 7.488C23.0963 7.44 22.8083 7.416 22.5363 7.416C21.7683 7.416 21.1363 7.576 20.6403 7.896C20.1443 8.216 19.8643 8.712 19.8003 9.384H17.0643C17.1123 8.584 17.3043 7.92 17.6403 7.392C17.9763 6.864 18.4003 6.44 18.9123 6.12C19.4403 5.8 20.0323 5.576 20.6883 5.448C21.3443 5.32 22.0163 5.256 22.7043 5.256C23.3123 5.256 23.9123 5.32 24.5043 5.448C25.0963 5.576 25.6243 5.784 26.0883 6.072C26.5683 6.36 26.9523 6.736 27.2403 7.2C27.5283 7.648 27.6723 8.2 27.6723 8.856V15.24ZM24.9363 11.784C24.5203 12.056 24.0083 12.224 23.4003 12.288C22.7923 12.336 22.1843 12.416 21.5763 12.528C21.2883 12.576 21.0083 12.648 20.7363 12.744C20.4643 12.824 20.2243 12.944 20.0163 13.104C19.8083 13.248 19.6403 13.448 19.5123 13.704C19.4003 13.944 19.3443 14.24 19.3443 14.592C19.3443 14.896 19.4323 15.152 19.6083 15.36C19.7843 15.568 19.9923 15.736 20.2323 15.864C20.4883 15.976 20.7603 16.056 21.0483 16.104C21.3523 16.152 21.6243 16.176 21.8643 16.176C22.1683 16.176 22.4963 16.136 22.8483 16.056C23.2003 15.976 23.5283 15.84 23.8323 15.648C24.1523 15.456 24.4163 15.216 24.6243 14.928C24.8323 14.624 24.9363 14.256 24.9363 13.824V11.784ZM30.1363 5.592H32.7283V7.416L32.7763 7.464C33.1923 6.776 33.7363 6.24 34.4083 5.856C35.0803 5.456 35.8243 5.256 36.6403 5.256C38.0003 5.256 39.0723 5.608 39.8563 6.312C40.6403 7.016 41.0323 8.072 41.0323 9.48V18H38.2963V10.2C38.2643 9.224 38.0563 8.52 37.6723 8.088C37.2883 7.64 36.6883 7.416 35.8723 7.416C35.4083 7.416 34.9923 7.504 34.6243 7.68C34.2563 7.84 33.9443 8.072 33.6883 8.376C33.4323 8.664 33.2323 9.008 33.0883 9.408C32.9443 9.808 32.8723 10.232 32.8723 10.68V18H30.1363V5.592ZM43.4375 5.592H46.0295V7.416L46.0775 7.464C46.4935 6.776 47.0375 6.24 47.7095 5.856C48.3815 5.456 49.1255 5.256 49.9415 5.256C51.3015 5.256 52.3735 5.608 53.1575 6.312C53.9415 7.016 54.3335 8.072 54.3335 9.48V18H51.5975V10.2C51.5655 9.224 51.3575 8.52 50.9735 8.088C50.5895 7.64 49.9895 7.416 49.1735 7.416C48.7095 7.416 48.2935 7.504 47.9255 7.68C47.5575 7.84 47.2455 8.072 46.9895 8.376C46.7335 8.664 46.5335 9.008 46.3895 9.408C46.2455 9.808 46.1735 10.232 46.1735 10.68V18H43.4375V5.592ZM55.3708 5.592H58.3708L61.6108 14.856H61.6588L64.8028 5.592H67.6588L62.8348 18.672C62.6108 19.232 62.3868 19.768 62.1628 20.28C61.9548 20.792 61.6908 21.24 61.3708 21.624C61.0668 22.024 60.6828 22.336 60.2188 22.56C59.7548 22.8 59.1628 22.92 58.4428 22.92C57.8028 22.92 57.1708 22.872 56.5468 22.776V20.472C56.7708 20.504 56.9868 20.536 57.1948 20.568C57.4028 20.616 57.6188 20.64 57.8428 20.64C58.1628 20.64 58.4268 20.6 58.6348 20.52C58.8428 20.44 59.0108 20.32 59.1388 20.16C59.2828 20.016 59.4028 19.84 59.4988 19.632C59.5948 19.424 59.6828 19.184 59.7628 18.912L60.0748 17.952L55.3708 5.592ZM66.7169 14.76H70.0529V18H66.7169V14.76ZM75.0526 12.288C75.0526 12.944 75.1646 13.504 75.3886 13.968C75.6126 14.432 75.9246 14.816 76.3246 15.12C76.7246 15.408 77.1806 15.624 77.6926 15.768C78.2206 15.896 78.7886 15.96 79.3966 15.96C80.0526 15.96 80.6126 15.888 81.0766 15.744C81.5406 15.584 81.9166 15.384 82.2046 15.144C82.4926 14.904 82.7006 14.632 82.8286 14.328C82.9566 14.008 83.0206 13.688 83.0206 13.368C83.0206 12.712 82.8686 12.232 82.5646 11.928C82.2766 11.608 81.9566 11.384 81.6046 11.256C80.9966 11.032 80.2846 10.824 79.4686 10.632C78.6686 10.424 77.6766 10.16 76.4926 9.84C75.7566 9.648 75.1406 9.4 74.6446 9.096C74.1646 8.776 73.7806 8.424 73.4926 8.04C73.2046 7.656 72.9966 7.248 72.8686 6.816C72.7566 6.384 72.7006 5.944 72.7006 5.496C72.7006 4.632 72.8766 3.888 73.2286 3.264C73.5966 2.624 74.0766 2.096 74.6686 1.68C75.2606 1.264 75.9326 0.959999 76.6846 0.767999C77.4366 0.559999 78.1966 0.456 78.9646 0.456C79.8606 0.456 80.7006 0.576 81.4846 0.816C82.2846 1.04 82.9806 1.384 83.5726 1.848C84.1806 2.312 84.6606 2.888 85.0126 3.576C85.3646 4.248 85.5406 5.032 85.5406 5.928H82.5406C82.4606 4.824 82.0846 4.048 81.4126 3.6C80.7406 3.136 79.8846 2.904 78.8446 2.904C78.4926 2.904 78.1326 2.944 77.7646 3.024C77.3966 3.088 77.0606 3.208 76.7566 3.384C76.4526 3.544 76.1966 3.768 75.9886 4.056C75.7966 4.344 75.7006 4.704 75.7006 5.136C75.7006 5.744 75.8846 6.224 76.2526 6.576C76.6366 6.912 77.1326 7.168 77.7406 7.344C77.8046 7.36 78.0526 7.432 78.4846 7.56C78.9326 7.672 79.4286 7.8 79.9726 7.944C80.5166 8.088 81.0446 8.232 81.5566 8.376C82.0846 8.504 82.4606 8.6 82.6846 8.664C83.2446 8.84 83.7326 9.08 84.1486 9.384C84.5646 9.688 84.9086 10.04 85.1806 10.44C85.4686 10.824 85.6766 11.24 85.8046 11.688C85.9486 12.136 86.0206 12.584 86.0206 13.032C86.0206 13.992 85.8206 14.816 85.4206 15.504C85.0366 16.176 84.5246 16.728 83.8846 17.16C83.2446 17.592 82.5166 17.904 81.7006 18.096C80.8846 18.304 80.0526 18.408 79.2046 18.408C78.2286 18.408 77.3086 18.288 76.4446 18.048C75.5806 17.808 74.8286 17.44 74.1886 16.944C73.5486 16.448 73.0366 15.816 72.6526 15.048C72.2686 14.264 72.0686 13.344 72.0526 12.288H75.0526ZM96.3031 10.704C96.2711 10.272 96.1751 9.856 96.0151 9.456C95.8711 9.056 95.6631 8.712 95.3911 8.424C95.1351 8.12 94.8151 7.88 94.4311 7.704C94.0631 7.512 93.6471 7.416 93.1831 7.416C92.7031 7.416 92.2631 7.504 91.8631 7.68C91.4791 7.84 91.1431 8.072 90.8551 8.376C90.5831 8.664 90.3591 9.008 90.1831 9.408C90.0231 9.808 89.9351 10.24 89.9191 10.704H96.3031ZM89.9191 12.504C89.9191 12.984 89.9831 13.448 90.1111 13.896C90.2551 14.344 90.4631 14.736 90.7351 15.072C91.0071 15.408 91.3511 15.68 91.7671 15.888C92.1831 16.08 92.6791 16.176 93.2551 16.176C94.0551 16.176 94.6951 16.008 95.1751 15.672C95.6711 15.32 96.0391 14.8 96.2791 14.112H98.8711C98.7271 14.784 98.4791 15.384 98.1271 15.912C97.7751 16.44 97.3511 16.888 96.8551 17.256C96.3591 17.608 95.7991 17.872 95.1751 18.048C94.5671 18.24 93.9271 18.336 93.2551 18.336C92.2791 18.336 91.4151 18.176 90.6631 17.856C89.9111 17.536 89.2711 17.088 88.7431 16.512C88.2311 15.936 87.8391 15.248 87.5671 14.448C87.3111 13.648 87.1831 12.768 87.1831 11.808C87.1831 10.928 87.3191 10.096 87.5911 9.312C87.8791 8.512 88.2791 7.816 88.7911 7.224C89.3191 6.616 89.9511 6.136 90.6871 5.784C91.4231 5.432 92.2551 5.256 93.1831 5.256C94.1591 5.256 95.0311 5.464 95.7991 5.88C96.5831 6.28 97.2311 6.816 97.7431 7.488C98.2551 8.16 98.6231 8.936 98.8471 9.816C99.0871 10.68 99.1511 11.576 99.0391 12.504H89.9191ZM100.639 5.592H103.207V7.992H103.255C103.335 7.656 103.487 7.328 103.711 7.008C103.951 6.688 104.231 6.4 104.551 6.144C104.887 5.872 105.255 5.656 105.655 5.496C106.055 5.336 106.463 5.256 106.879 5.256C107.199 5.256 107.415 5.264 107.527 5.28C107.655 5.296 107.783 5.312 107.911 5.328V7.968C107.719 7.936 107.519 7.912 107.311 7.896C107.119 7.864 106.927 7.848 106.735 7.848C106.271 7.848 105.831 7.944 105.415 8.136C105.015 8.312 104.663 8.584 104.359 8.952C104.055 9.304 103.815 9.744 103.639 10.272C103.463 10.8 103.375 11.408 103.375 12.096V18H100.639V5.592ZM107.373 5.592H110.349L113.493 15.12H113.541L116.565 5.592H119.397L114.957 18H111.885L107.373 5.592ZM120.634 0.863999H123.37V3.456H120.634V0.863999ZM120.634 5.592H123.37V18H120.634V5.592ZM134.247 9.744C134.135 8.976 133.823 8.4 133.311 8.016C132.815 7.616 132.183 7.416 131.415 7.416C131.063 7.416 130.687 7.48 130.287 7.608C129.887 7.72 129.519 7.944 129.183 8.28C128.847 8.6 128.567 9.056 128.343 9.648C128.119 10.224 128.007 10.984 128.007 11.928C128.007 12.44 128.063 12.952 128.175 13.464C128.303 13.976 128.495 14.432 128.751 14.832C129.023 15.232 129.367 15.56 129.783 15.816C130.199 16.056 130.703 16.176 131.295 16.176C132.095 16.176 132.751 15.928 133.263 15.432C133.791 14.936 134.119 14.24 134.247 13.344H136.983C136.727 14.96 136.111 16.2 135.135 17.064C134.175 17.912 132.895 18.336 131.295 18.336C130.319 18.336 129.455 18.176 128.703 17.856C127.967 17.52 127.343 17.072 126.831 16.512C126.319 15.936 125.927 15.256 125.655 14.472C125.399 13.688 125.271 12.84 125.271 11.928C125.271 11 125.399 10.128 125.655 9.312C125.911 8.496 126.295 7.792 126.807 7.2C127.319 6.592 127.951 6.12 128.703 5.784C129.471 5.432 130.367 5.256 131.391 5.256C132.111 5.256 132.791 5.352 133.431 5.544C134.087 5.72 134.663 5.992 135.159 6.36C135.671 6.728 136.087 7.192 136.407 7.752C136.727 8.312 136.919 8.976 136.983 9.744H134.247ZM147.247 10.704C147.215 10.272 147.119 9.856 146.959 9.456C146.815 9.056 146.607 8.712 146.335 8.424C146.079 8.12 145.759 7.88 145.375 7.704C145.007 7.512 144.591 7.416 144.127 7.416C143.647 7.416 143.207 7.504 142.807 7.68C142.423 7.84 142.087 8.072 141.799 8.376C141.527 8.664 141.303 9.008 141.127 9.408C140.967 9.808 140.879 10.24 140.863 10.704H147.247ZM140.863 12.504C140.863 12.984 140.927 13.448 141.055 13.896C141.199 14.344 141.407 14.736 141.679 15.072C141.951 15.408 142.295 15.68 142.711 15.888C143.127 16.08 143.623 16.176 144.199 16.176C144.999 16.176 145.639 16.008 146.119 15.672C146.615 15.32 146.983 14.8 147.223 14.112H149.815C149.671 14.784 149.423 15.384 149.071 15.912C148.719 16.44 148.295 16.888 147.799 17.256C147.303 17.608 146.743 17.872 146.119 18.048C145.511 18.24 144.871 18.336 144.199 18.336C143.223 18.336 142.359 18.176 141.607 17.856C140.855 17.536 140.215 17.088 139.687 16.512C139.175 15.936 138.783 15.248 138.511 14.448C138.255 13.648 138.127 12.768 138.127 11.808C138.127 10.928 138.263 10.096 138.535 9.312C138.823 8.512 139.223 7.816 139.735 7.224C140.263 6.616 140.895 6.136 141.631 5.784C142.367 5.432 143.199 5.256 144.127 5.256C145.103 5.256 145.975 5.464 146.743 5.88C147.527 6.28 148.175 6.816 148.687 7.488C149.199 8.16 149.567 8.936 149.791 9.816C150.031 10.68 150.095 11.576 149.983 12.504H140.863ZM153.647 14.016C153.727 14.816 154.031 15.376 154.559 15.696C155.087 16.016 155.719 16.176 156.455 16.176C156.711 16.176 156.999 16.16 157.319 16.128C157.655 16.08 157.967 16 158.255 15.888C158.543 15.776 158.775 15.616 158.951 15.408C159.143 15.184 159.231 14.896 159.215 14.544C159.199 14.192 159.071 13.904 158.831 13.68C158.591 13.456 158.279 13.28 157.895 13.152C157.527 13.008 157.103 12.888 156.623 12.792C156.143 12.696 155.655 12.592 155.159 12.48C154.647 12.368 154.151 12.232 153.671 12.072C153.207 11.912 152.783 11.696 152.399 11.424C152.031 11.152 151.735 10.808 151.511 10.392C151.287 9.96 151.175 9.432 151.175 8.808C151.175 8.136 151.335 7.576 151.655 7.128C151.991 6.664 152.407 6.296 152.903 6.024C153.415 5.736 153.975 5.536 154.583 5.424C155.207 5.312 155.799 5.256 156.359 5.256C156.999 5.256 157.607 5.328 158.183 5.472C158.775 5.6 159.303 5.816 159.767 6.12C160.247 6.424 160.639 6.824 160.943 7.32C161.263 7.8 161.463 8.384 161.543 9.072H158.687C158.559 8.416 158.255 7.976 157.775 7.752C157.311 7.528 156.775 7.416 156.167 7.416C155.975 7.416 155.743 7.432 155.471 7.464C155.215 7.496 154.967 7.56 154.727 7.656C154.503 7.736 154.311 7.864 154.151 8.04C153.991 8.2 153.911 8.416 153.911 8.688C153.911 9.024 154.023 9.296 154.247 9.504C154.487 9.712 154.791 9.888 155.159 10.032C155.543 10.16 155.975 10.272 156.455 10.368C156.935 10.464 157.431 10.568 157.943 10.68C158.439 10.792 158.927 10.928 159.407 11.088C159.887 11.248 160.311 11.464 160.679 11.736C161.063 12.008 161.367 12.352 161.591 12.768C161.831 13.184 161.951 13.696 161.951 14.304C161.951 15.04 161.783 15.664 161.447 16.176C161.111 16.688 160.671 17.104 160.127 17.424C159.599 17.744 159.007 17.976 158.351 18.12C157.695 18.264 157.047 18.336 156.407 18.336C155.623 18.336 154.895 18.248 154.223 18.072C153.567 17.896 152.991 17.632 152.495 17.28C152.015 16.912 151.631 16.464 151.343 15.936C151.071 15.392 150.927 14.752 150.911 14.016H153.647Z" fill="#FBFBFB"/>
</svg>
